<?xml version="1.0" standalone="no"?>
<!DOCTYPE svg PUBLIC "-//W3C//DTD SVG 20010904//EN"
 "http://www.w3.org/TR/2001/REC-SVG-20010904/DTD/svg10.dtd">
<svg version="1.0" xmlns="http://www.w3.org/2000/svg"
 width="2560.000000pt" height="2560.000000pt" viewBox="0 0 2560.000000 2560.000000"
 preserveAspectRatio="xMidYMid meet">

<g transform="translate(0.000000,2560.000000) scale(0.100000,-0.100000)"
fill="#000000" stroke="none">
<path d="M21470 25583 c-295 -17 -648 -121 -920 -271 -428 -235 -914 -744
-1217 -1272 -436 -759 -704 -1792 -795 -3055 -8 -117 -13 -377 -12 -745 0
-788 17 -1051 173 -2770 171 -1867 193 -2219 233 -3590 8 -261 13 -858 12
-1490 0 -923 -2 -1073 -17 -1199 -31 -265 -94 -522 -184 -751 -97 -248 -199
-394 -363 -522 -69 -53 -130 -85 -232 -120 -88 -31 -100 -33 -233 -32 -102 0
-157 5 -205 18 -331 91 -667 404 -868 807 -101 203 -216 565 -602 1884 -210
720 -292 966 -395 1196 -183 408 -435 764 -772 1090 -663 641 -1513 865 -2358
619 -312 -91 -650 -273 -975 -526 -172 -134 -374 -341 -532 -544 -334 -431
-659 -905 -977 -1425 -311 -507 -444 -700 -632 -912 -106 -120 -289 -291 -394
-368 -266 -197 -562 -288 -830 -255 -419 50 -766 347 -1020 873 -123 254 -261
697 -329 1058 -59 311 -189 1442 -260 2274 -44 507 -54 667 -91 1410 -47 950
-79 1380 -136 1840 -76 613 -182 1169 -295 1555 -207 703 -529 1246 -1003
1690 -235 220 -407 342 -662 469 -516 257 -1101 333 -1658 216 -425 -90 -995
-325 -1439 -592 -232 -140 -384 -256 -542 -413 -258 -256 -447 -550 -575 -894
-106 -285 -176 -730 -160 -1011 27 -488 127 -849 427 -1550 244 -569 388 -952
527 -1400 319 -1024 487 -1916 795 -4215 231 -1725 381 -3049 566 -4990 192
-2017 254 -2552 361 -3115 209 -1096 569 -1976 1092 -2671 524 -697 1199
-1181 2032 -1459 541 -181 1092 -261 1608 -235 316 16 508 42 797 110 746 172
1507 566 2140 1106 63 54 376 357 695 674 564 560 880 857 1041 982 264 204
577 360 877 438 360 92 768 81 1132 -31 566 -175 976 -476 2165 -1588 563
-527 942 -843 1270 -1056 498 -324 914 -516 1375 -633 949 -242 1945 -142
2790 280 355 178 610 352 907 621 510 461 1002 1244 1398 2223 185 457 350
1002 454 1503 152 729 532 3351 635 4386 164 1643 144 3174 -79 5850 -275
3294 -619 6123 -906 7443 -125 575 -261 1066 -364 1307 -255 598 -656 1106
-1115 1412 -398 265 -876 394 -1355 366z"/>
</g>
</svg>
